<svg xmlns="http://www.w3.org/2000/svg" width="900" height="500">
<text x="450.0" y="24" text-anchor="middle" font-size="18">Training Loss vs Epoch (adam_sgd)</text>
<line x1="70" y1="40" x2="70" y2="430" stroke="black"/>
<line x1="70" y1="430" x2="880" y2="430" stroke="black"/>
<line x1="70" y1="430.00" x2="880" y2="430.00" stroke="#dddddd"/>
<text x="62" y="434.00" text-anchor="end" font-size="11">0.0448</text>
<line x1="70" y1="352.00" x2="880" y2="352.00" stroke="#dddddd"/>
<text x="62" y="356.00" text-anchor="end" font-size="11">0.0535</text>
<line x1="70" y1="274.00" x2="880" y2="274.00" stroke="#dddddd"/>
<text x="62" y="278.00" text-anchor="end" font-size="11">0.0623</text>
<line x1="70" y1="196.00" x2="880" y2="196.00" stroke="#dddddd"/>
<text x="62" y="200.00" text-anchor="end" font-size="11">0.0710</text>
<line x1="70" y1="118.00" x2="880" y2="118.00" stroke="#dddddd"/>
<text x="62" y="122.00" text-anchor="end" font-size="11">0.0797</text>
<line x1="70" y1="40.00" x2="880" y2="40.00" stroke="#dddddd"/>
<text x="62" y="44.00" text-anchor="end" font-size="11">0.0884</text>
<polyline fill="none" stroke="#e8684a" stroke-width="2" points="70.00,40.00 80.25,167.44 90.51,220.94 100.76,245.95 111.01,261.79 121.27,257.85 131.52,301.59 141.77,303.53 152.03,308.62 162.28,320.46 172.53,333.91 182.78,340.71 193.04,331.19 203.29,335.05 213.54,341.10 223.80,341.62 234.05,290.83 244.30,316.59 254.56,335.12 264.81,359.74 275.06,362.97 285.32,327.64 295.57,360.82 305.82,361.05 316.08,363.38 326.33,353.93 336.58,371.23 346.84,376.44 357.09,333.11 367.34,371.02 377.59,371.28 387.85,312.90 398.10,365.88 408.35,365.04 418.61,352.01 428.86,359.64 439.11,394.68 449.37,380.37 459.62,374.25 469.87,368.43 480.13,400.34 490.38,388.94 500.63,344.81 510.89,391.10 521.14,392.93 531.39,393.53 541.65,405.14 551.90,405.24 562.15,408.12 572.41,403.26 582.66,402.91 592.91,381.20 603.16,403.83 613.42,403.26 623.67,393.62 633.92,405.51 644.18,391.76 654.43,402.68 664.68,389.69 674.94,399.49 685.19,358.30 695.44,422.14 705.70,351.76 715.95,405.97 726.20,391.19 736.46,420.19 746.71,304.08 756.96,411.62 767.22,406.57 777.47,375.73 787.72,414.03 797.97,352.91 808.23,381.42 818.48,425.39 828.73,404.16 838.99,389.91 849.24,409.55 859.49,430.00 869.75,345.79 880.00,396.67"/>
<text x="475.00" y="482" text-anchor="middle" font-size="12">Epoch</text>
<text x="18" y="235.00" text-anchor="middle" font-size="12" transform="rotate(-90 18 235.00)">BCE Loss</text>
</svg>