<svg xmlns="http://www.w3.org/2000/svg" width="700" height="520">
<text x="350.0" y="24" text-anchor="middle" font-size="18">Test Metrics (adam_sgd)</text>
<line x1="70" y1="40" x2="70" y2="400" stroke="black"/>
<line x1="70" y1="400" x2="680" y2="400" stroke="black"/>
<line x1="70" y1="400.00" x2="680" y2="400.00" stroke="#dddddd"/>
<text x="62" y="404.00" text-anchor="end" font-size="11">0.00</text>
<line x1="70" y1="328.00" x2="680" y2="328.00" stroke="#dddddd"/>
<text x="62" y="332.00" text-anchor="end" font-size="11">0.20</text>
<line x1="70" y1="256.00" x2="680" y2="256.00" stroke="#dddddd"/>
<text x="62" y="260.00" text-anchor="end" font-size="11">0.40</text>
<line x1="70" y1="184.00" x2="680" y2="184.00" stroke="#dddddd"/>
<text x="62" y="188.00" text-anchor="end" font-size="11">0.60</text>
<line x1="70" y1="112.00" x2="680" y2="112.00" stroke="#dddddd"/>
<text x="62" y="116.00" text-anchor="end" font-size="11">0.80</text>
<line x1="70" y1="40.00" x2="680" y2="40.00" stroke="#dddddd"/>
<text x="62" y="44.00" text-anchor="end" font-size="11">1.00</text>
<rect x="96.69" y="42.00" width="99.12" height="358.00" fill="#5b8ff9"/>
<text x="146.25" y="37.00" text-anchor="middle" font-size="10">1.000</text>
<text x="146.25" y="416.00" text-anchor="middle" font-size="11">accuracy</text>
<rect x="249.19" y="42.00" width="99.12" height="358.00" fill="#5b8ff9"/>
<text x="298.75" y="37.00" text-anchor="middle" font-size="10">1.000</text>
<text x="298.75" y="416.00" text-anchor="middle" font-size="11">precision</text>
<rect x="401.69" y="42.00" width="99.12" height="358.00" fill="#5b8ff9"/>
<text x="451.25" y="37.00" text-anchor="middle" font-size="10">1.000</text>
<text x="451.25" y="416.00" text-anchor="middle" font-size="11">recall</text>
<rect x="554.19" y="42.00" width="99.12" height="358.00" fill="#5b8ff9"/>
<text x="603.75" y="37.00" text-anchor="middle" font-size="10">1.000</text>
<text x="603.75" y="416.00" text-anchor="middle" font-size="11">f1</text>
<text x="18" y="220.00" text-anchor="middle" font-size="12" transform="rotate(-90 18 220.00)">Score</text>
</svg>